<!--<?xml version="1.0" encoding="UTF-8"?>-->
<svg version="1.1"  xmlns="http://www.w3.org/2000/svg">

 <symbol id="universal-access" viewBox="0 0 100 100">
  <path d="M50,89.9c-21.6,0-39.1-17.5-39.1-39.1S28.4,11.8,50,11.8c21.6,0,39.1,17.5,39.1,39.1S71.6,89.9,50,89.9z M16.5,50.9
		c0,18.4,15,33.5,33.5,33.5s33.5-15,33.5-33.5S68.4,17.4,50,17.4S16.5,32.4,16.5,50.9z M50,81.6c-17,0-30.7-13.7-30.7-30.7
		S33,20.2,50,20.2c17,0,30.7,13.7,30.7,30.7S67,81.6,50,81.6z M67.5,38.4c-6.2,1.5-11.9,2.7-17.5,2.7s-11.2-1.2-17.5-2.7
		c-1.5-0.3-3,0.6-3.4,2c-0.3,1.5,0.6,3,2,3.4c4.6,1.1,8.9,2,13.2,2.5c-0.2,14.7-1.8,18.8-3.6,23.5l-0.4,0.9
		c-0.6,1.4,0.2,3.1,1.6,3.6c0.3,0.1,0.7,0.2,1,0.2c1.1,0,2.2-0.7,2.6-1.8l0.3-0.9c1.2-3.1,2.4-6.1,3.1-11.3h1.8
		c0.7,5.2,1.9,8.2,3.1,11.3l0.3,0.9c0.4,1.1,1.5,1.8,2.6,1.8c0.3,0,0.7,0,1-0.2c1.4-0.6,2.2-2.2,1.6-3.6l-0.4-0.9
		c-1.8-4.7-3.4-8.8-3.6-23.5c4.3-0.5,8.6-1.4,13.2-2.5c1.5-0.3,2.4-1.8,2-3.4C70.5,39,69,38.1,67.5,38.4z M50,28.5
		c-3.1,0-5.6,2.5-5.6,5.6s2.5,5.6,5.6,5.6c3.1,0,5.6-2.5,5.6-5.6S53.1,28.5,50,28.5z"></path>
 </symbol>


 <symbol id="home" viewBox="0 0 100 100">
  <path d="M82.1,55.3c-0.2,0.3-0.6,0.4-0.9,0.5c0,0-0.1,0-0.1,0c-0.3,0-0.7-0.1-0.9-0.3L50,30.3L19.8,55.4c-0.3,0.2-0.7,0.3-1,0.3
		c-0.3,0-0.7-0.2-0.9-0.5L15.2,52c-0.5-0.6-0.4-1.5,0.2-2L46.7,24c1.8-1.5,4.8-1.5,6.6,0L64,32.9v-8.5c0-0.8,0.6-1.4,1.4-1.4h8.4
		c0.8,0,1.4,0.6,1.4,1.4v17.8l9.5,7.9c0.6,0.5,0.7,1.4,0.2,2L82.1,55.3z M75.1,76c0,1.5-1.3,2.8-2.8,2.8H55.6V62H44.4v16.7H27.7
		c-1.5,0-2.8-1.3-2.8-2.8V55.1c0-0.1,0-0.2,0-0.3L50,34.1l25.1,20.7c0,0.1,0,0.2,0,0.3V76z"/>
 </symbol>

 <symbol id="home1" viewBox="0 0 576 512">
 <path d="m285 148-170 142v153a15 15 0 0 0 15 15l104-0.3a15 15 0 0 0 15-15v-90a15 15 0 0 1 15-15h59a15 15 0 0 1 15 15v89a15 15 0 0 0 15 15l104 0.3a15 15 0 0 0 15-15v-153l-170-142a11 11 0 0 0-14 0zm269 97-77-64v-130a11 11 0 0 0-11-11h-52a11 11 0 0 0-11 11v68l-83-69a44 45 0 0 0-56 0l-234 195a11 11 0 0 0-1 16l24 29a11 11 0 0 0 16 2l217-181a11 11 0 0 1 14 0l217 181a11 11 0 0 0 16-1l24-29a11 11 0 0 0-2-16z" stroke-width=".9"/>

 </symbol>

 <symbol id="briefcase" viewbox="0 0 512 512">
  <path xmlns="http://www.w3.org/2000/svg" d="m311 321c0 8-6 14-14 14h-85c-8 0-14-6-14-14v-43h-169v128c0 23 20 43 42 43h367c23 0 42-20 42-43v-128h-169zm127-185h-71v-43c0-23-20-43-42-43h-141c-23 0-42 20-42 43v43h-71c-23 0-42 20-42 43v71h452v-71c0-23-20-43-42-43zm-127 0h-113v-28h113z" stroke-width=".9"/>
 </symbol>

</svg>
