<?xml version="1.0" encoding="UTF-8"?>
<svg
        width="210mm" height="297mm"
        version="1.1"
        viewBox="0 0 210 297"
        xmlns="http://www.w3.org/2000/svg">
 <path d="m145 87-30-18v-14h13c2 0 4-2 4-4v-8c0-2-2-4-4-4h-13v-13c0-2-2-4-4-4h-8c-2 0-4 2-4 4v13h-13c-2 0-4 2-4 4v8c0 2 2 4 4 4h13v14l-30 18a8 8 0 0 0-4 7v63h25v-25c0-9 8-17 17-17 9 0 17 8 17 17v25h25v-63c0-3-2-6-4-7zm-123 39v26c0 2 2 4 4 4h30v-51l-29 12a8 8 0 0 0-5 8zm164-8-29-12v51h30c2 0 4-2 4-4v-26c0-3-2-6-5-8z"
       />
</svg>

