<?xml version="1.0" encoding="UTF-8" standalone="no"?>
<svg
   xmlns:dc="http://purl.org/dc/elements/1.1/"
   xmlns:cc="http://creativecommons.org/ns#"
   xmlns:rdf="http://www.w3.org/1999/02/22-rdf-syntax-ns#"
   xmlns:svg="http://www.w3.org/2000/svg"
   xmlns="http://www.w3.org/2000/svg"
   xmlns:sodipodi="http://sodipodi.sourceforge.net/DTD/sodipodi-0.dtd"
   xmlns:inkscape="http://www.inkscape.org/namespaces/inkscape"
   width="100mm"
   height="100mm"
   viewBox="0 0 100 100"
   version="1.1"
   id="svg8"
   inkscape:version="1.0.2-2 (e86c870879, 2021-01-15)"
   sodipodi:docname="redo.svg">
  <defs
     id="defs2" />
  <sodipodi:namedview
     id="base"
     pagecolor="#ffffff"
     bordercolor="#666666"
     borderopacity="1.0"
     inkscape:pageopacity="0.0"
     inkscape:pageshadow="2"
     inkscape:zoom="2.2621875"
     inkscape:cx="192.95483"
     inkscape:cy="190.44988"
     inkscape:document-units="mm"
     inkscape:current-layer="layer1"
     inkscape:document-rotation="0"
     showgrid="true"
     inkscape:window-width="1431"
     inkscape:window-height="1055"
     inkscape:window-x="192"
     inkscape:window-y="0"
     inkscape:window-maximized="0">
    <inkscape:grid
       spacingx="2.6458333"
       spacingy="2.6458333"
       type="xygrid"
       id="grid10" />
  </sodipodi:namedview>
  <metadata
     id="metadata5">
    <rdf:RDF>
      <cc:Work
         rdf:about="">
        <dc:format>image/svg+xml</dc:format>
        <dc:type
           rdf:resource="http://purl.org/dc/dcmitype/StillImage" />
        <dc:title></dc:title>
      </cc:Work>
    </rdf:RDF>
  </metadata>
  <g
     inkscape:label="Layer 1"
     inkscape:groupmode="layer"
     id="layer1">
    <path
       d="m 91.21174,3.2915585 h -8.266902 a 2.0924452,2.16414 0 0 0 -2.092445,2.266937 L 81.549874,20.483848 A 43.142733,44.62096 0 0 0 48.607812,4.7343195 C 24.778349,4.7343195 5.3465078,24.848197 5.3639458,49.494145 5.3813858,74.179769 24.7365,94.18544 48.607812,94.18544 a 43.086934,44.56325 0 0 0 28.976879,-11.525849 2.0924452,2.16414 0 0 0 0.0837,-3.143414 l -5.928594,-6.13173 A 2.0924452,2.16414 0 0 0 68.883606,73.285257 30.689196,31.74072 0 1 1 74.083332,31.75 l -17.70383,-0.87828 a 2.0924452,2.16414 0 0 0 -2.191836,2.16414 v 8.550156 a 2.0924452,2.16414 0 0 0 2.092446,2.16414 H 91.21174 a 2.0924452,2.16414 0 0 0 2.092445,-2.16414 V 5.4556985 a 2.0924452,2.16414 0 0 0 -2.092445,-2.16414 z"
       id="path12"
       style="stroke-width:0.177332" />
  </g>
</svg>
