<?xml version="1.0" encoding="UTF-8" standalone="no"?>
<svg
   xmlns:dc="http://purl.org/dc/elements/1.1/"
   xmlns:cc="http://creativecommons.org/ns#"
   xmlns:rdf="http://www.w3.org/1999/02/22-rdf-syntax-ns#"
   xmlns:svg="http://www.w3.org/2000/svg"
   xmlns="http://www.w3.org/2000/svg"
   xmlns:sodipodi="http://sodipodi.sourceforge.net/DTD/sodipodi-0.dtd"
   xmlns:inkscape="http://www.inkscape.org/namespaces/inkscape"
   width="100mm"
   height="100mm"
   viewBox="0 0 100 100"
   version="1.1"
   id="svg8"
   inkscape:version="1.0.2-2 (e86c870879, 2021-01-15)"
   sodipodi:docname="calendar.svg">
  <defs
     id="defs2" />
  <sodipodi:namedview
     id="base"
     pagecolor="#ffffff"
     bordercolor="#666666"
     borderopacity="1.0"
     inkscape:pageopacity="0.0"
     inkscape:pageshadow="2"
     inkscape:zoom="2.2621875"
     inkscape:cx="188.97638"
     inkscape:cy="188.97638"
     inkscape:document-units="mm"
     inkscape:current-layer="layer1"
     inkscape:document-rotation="0"
     showgrid="true"
     inkscape:window-width="1431"
     inkscape:window-height="1055"
     inkscape:window-x="224"
     inkscape:window-y="0"
     inkscape:window-maximized="0">
    <inkscape:grid
       type="xygrid"
       id="grid10"
       spacingx="2.6458333"
       spacingy="2.6458333" />
  </sodipodi:namedview>
  <metadata
     id="metadata5">
    <rdf:RDF>
      <cc:Work
         rdf:about="">
        <dc:format>image/svg+xml</dc:format>
        <dc:type
           rdf:resource="http://purl.org/dc/dcmitype/StillImage" />
        <dc:title></dc:title>
      </cc:Work>
    </rdf:RDF>
  </metadata>
  <g
     inkscape:label="Layer 1"
     inkscape:groupmode="layer"
     id="layer1">
    <path
       d="m 10.583334,86.350374 c 0,4.780541 3.809291,8.659091 8.504464,8.659091 h 62.366069 c 4.695175,0 8.504465,-3.87855 8.504465,-8.659091 V 37.282198 H 10.583334 Z M 67.27976,50.992424 c 0,-1.190624 0.956753,-2.164773 2.126117,-2.164773 h 7.087053 c 1.169364,0 2.126117,0.974149 2.126117,2.164773 v 7.215909 c 0,1.190625 -0.956753,2.164774 -2.126117,2.164774 h -7.087053 c -1.169364,0 -2.126117,-0.974149 -2.126117,-2.164774 z m 0,23.090908 c 0,-1.190624 0.956753,-2.164772 2.126117,-2.164772 h 7.087053 c 1.169364,0 2.126117,0.974148 2.126117,2.164772 v 7.215909 c 0,1.190625 -0.956753,2.164773 -2.126117,2.164773 h -7.087053 c -1.169364,0 -2.126117,-0.974148 -2.126117,-2.164773 z M 44.60119,50.992424 c 0,-1.190624 0.956752,-2.164773 2.126116,-2.164773 h 7.087054 c 1.169363,0 2.126114,0.974149 2.126114,2.164773 v 7.215909 c 0,1.190625 -0.956751,2.164774 -2.126114,2.164774 h -7.087054 c -1.169364,0 -2.126116,-0.974149 -2.126116,-2.164774 z m 0,23.090908 c 0,-1.190624 0.956752,-2.164772 2.126116,-2.164772 h 7.087054 c 1.169363,0 2.126114,0.974148 2.126114,2.164772 v 7.215909 c 0,1.190625 -0.956751,2.164773 -2.126114,2.164773 h -7.087054 c -1.169364,0 -2.126116,-0.974148 -2.126116,-2.164773 z M 21.922619,50.992424 c 0,-1.190624 0.956753,-2.164773 2.126117,-2.164773 h 7.087052 c 1.169364,0 2.126117,0.974149 2.126117,2.164773 v 7.215909 c 0,1.190625 -0.956753,2.164774 -2.126117,2.164774 h -7.087052 c -1.169364,0 -2.126117,-0.974149 -2.126117,-2.164774 z m 0,23.090908 c 0,-1.190624 0.956753,-2.164772 2.126117,-2.164772 h 7.087052 c 1.169364,0 2.126117,0.974148 2.126117,2.164772 v 7.215909 c 0,1.190625 -0.956753,2.164773 -2.126117,2.164773 h -7.087052 c -1.169364,0 -2.126117,-0.974148 -2.126117,-2.164773 z M 81.453867,14.19129 H 72.949403 V 5.5321997 c 0,-1.5874997 -1.27567,-2.8863636 -2.834821,-2.8863636 h -5.669643 c -1.559151,0 -2.834821,1.2988639 -2.834821,2.8863636 V 14.19129 H 38.931547 V 5.5321997 c 0,-1.5874997 -1.275669,-2.8863636 -2.83482,-2.8863636 h -5.669644 c -1.559151,0 -2.834821,1.2988639 -2.834821,2.8863636 V 14.19129 h -8.504464 c -4.695173,0 -8.504464,3.87855 -8.504464,8.65909 v 8.659091 H 89.958332 V 22.85038 c 0,-4.78054 -3.80929,-8.65909 -8.504465,-8.65909 z"
       id="path156"
       style="stroke-width:0.17878" />
  </g>
</svg>
