<?xml version="1.0" encoding="UTF-8" standalone="no"?>
<svg
   xmlns:dc="http://purl.org/dc/elements/1.1/"
   xmlns:cc="http://creativecommons.org/ns#"
   xmlns:rdf="http://www.w3.org/1999/02/22-rdf-syntax-ns#"
   xmlns:svg="http://www.w3.org/2000/svg"
   xmlns="http://www.w3.org/2000/svg"
   xmlns:sodipodi="http://sodipodi.sourceforge.net/DTD/sodipodi-0.dtd"
   xmlns:inkscape="http://www.inkscape.org/namespaces/inkscape"
   width="100mm"
   height="100mm"
   viewBox="0 0 100 100"
   version="1.1"
   id="svg8"
   inkscape:version="1.0.2-2 (e86c870879, 2021-01-15)"
   sodipodi:docname="dashboard.svg">
  <defs
     id="defs2" />
  <sodipodi:namedview
     id="base"
     pagecolor="#ffffff"
     bordercolor="#666666"
     borderopacity="1.0"
     inkscape:pageopacity="0.0"
     inkscape:pageshadow="2"
     inkscape:zoom="2.2621875"
     inkscape:cx="188.97638"
     inkscape:cy="188.97638"
     inkscape:document-units="mm"
     inkscape:current-layer="layer1"
     inkscape:document-rotation="0"
     showgrid="true"
     inkscape:window-width="1431"
     inkscape:window-height="1055"
     inkscape:window-x="96"
     inkscape:window-y="0"
     inkscape:window-maximized="0">
    <inkscape:grid
       type="xygrid"
       id="grid10"
       spacingx="2.6458333"
       spacingy="2.6458333" />
  </sodipodi:namedview>
  <metadata
     id="metadata5">
    <rdf:RDF>
      <cc:Work
         rdf:about="">
        <dc:format>image/svg+xml</dc:format>
        <dc:type
           rdf:resource="http://purl.org/dc/dcmitype/StillImage" />
        <dc:title></dc:title>
      </cc:Work>
    </rdf:RDF>
  </metadata>
  <g
     inkscape:label="Layer 1"
     inkscape:groupmode="layer"
     id="layer1">
    <path
       d="m 49.741665,13.758337 c -24.549364,0 -44.4499987,20.159083 -44.4499987,45.027269 0,8.255001 2.1993485,15.987806 6.0285317,22.638713 0.865848,1.504035 2.515746,2.376441 4.235097,2.376441 h 68.372743 c 1.719346,0 3.369246,-0.872406 4.235093,-2.376441 3.829187,-6.650907 6.028534,-14.383712 6.028534,-22.638712 0,-24.868186 -19.900638,-45.02727 -44.45,-45.02727 z m 0,10.006059 c 2.270345,0 4.102364,1.583772 4.679598,3.697551 -0.171319,0.35334 -0.407459,0.661339 -0.532475,1.04282 l -1.423016,4.326057 c -0.791767,0.545644 -1.693114,0.939632 -2.722563,0.939632 -2.727193,0 -4.938889,-2.24042 -4.938889,-5.00303 0,-2.76261 2.210153,-5.00303 4.937345,-5.00303 z m -29.633333,45.02727 c -2.727193,0 -4.938888,-2.240418 -4.938888,-5.003029 0,-2.762611 2.211695,-5.003031 4.938888,-5.003031 2.727193,0 4.938889,2.24042 4.938889,5.003031 0,2.762611 -2.211696,5.003029 -4.938889,5.003029 z m 7.408334,-25.01515 c -2.727192,0 -4.938889,-2.240419 -4.938889,-5.00303 0,-2.76261 2.211697,-5.00303 4.938889,-5.00303 2.727192,0 4.938888,2.24042 4.938888,5.00303 0,2.762611 -2.211696,5.00303 -4.938888,5.00303 z m 38.086549,-11.320919 -9.46569,28.767424 c 2.112919,1.835487 3.481917,4.526179 3.481917,7.568645 0,1.83236 -0.521669,3.525574 -1.370541,5.003031 H 41.234429 c -0.84887,-1.477457 -1.370541,-3.170671 -1.370541,-5.003031 0,-5.306338 4.090017,-9.604254 9.244982,-9.941958 l 9.467232,-28.768987 c 0.6436,-1.963689 2.736453,-3.040904 4.68577,-2.371749 1.940059,0.655084 2.986486,2.781371 2.341343,4.746625 z m 2.262628,8.942916 2.395362,-7.277845 c 0.535561,-0.201685 1.100446,-0.348648 1.705459,-0.348648 2.727196,0 4.938892,2.240419 4.938892,5.00303 0,2.762611 -2.211696,5.00303 -4.938892,5.00303 -1.756392,-0.0015 -3.224167,-0.981845 -4.100821,-2.379567 z m 11.509156,27.393153 c -2.727195,0 -4.93889,-2.240418 -4.93889,-5.003029 0,-2.762611 2.211695,-5.003031 4.93889,-5.003031 2.727194,0 4.938885,2.24042 4.938885,5.003031 0,2.762611 -2.211691,5.003029 -4.938885,5.003029 z"
       id="path80"
       style="stroke-width:0.155339" />
  </g>
</svg>
