<?xml version="1.0" encoding="UTF-8" standalone="no"?>
<svg
   xmlns:dc="http://purl.org/dc/elements/1.1/"
   xmlns:cc="http://creativecommons.org/ns#"
   xmlns:rdf="http://www.w3.org/1999/02/22-rdf-syntax-ns#"
   xmlns:svg="http://www.w3.org/2000/svg"
   xmlns="http://www.w3.org/2000/svg"
   xmlns:sodipodi="http://sodipodi.sourceforge.net/DTD/sodipodi-0.dtd"
   xmlns:inkscape="http://www.inkscape.org/namespaces/inkscape"
   width="210mm"
   height="297mm"
   viewBox="0 0 210 297"
   version="1.1"
   id="svg8"
   inkscape:version="1.0.2-2 (e86c870879, 2021-01-15)"
   sodipodi:docname="code_svg.svg">
  <defs
     id="defs2" />
  <sodipodi:namedview
     id="base"
     pagecolor="#ffffff"
     bordercolor="#666666"
     borderopacity="1.0"
     inkscape:pageopacity="0.0"
     inkscape:pageshadow="2"
     inkscape:zoom="0.7"
     inkscape:cx="396.85039"
     inkscape:cy="561.25984"
     inkscape:document-units="mm"
     inkscape:current-layer="layer1"
     inkscape:document-rotation="0"
     showgrid="false"
     inkscape:window-width="1920"
     inkscape:window-height="1001"
     inkscape:window-x="-9"
     inkscape:window-y="-9"
     inkscape:window-maximized="1" />
  <metadata
     id="metadata5">
    <rdf:RDF>
      <cc:Work
         rdf:about="">
        <dc:format>image/svg+xml</dc:format>
        <dc:type
           rdf:resource="http://purl.org/dc/dcmitype/StillImage" />
        <dc:title></dc:title>
      </cc:Work>
    </rdf:RDF>
  </metadata>
  <g
     inkscape:label="Layer 1"
     inkscape:groupmode="layer"
     id="layer1">
    <path
       d="M 90.045268,145.08142 73.905684,140.3983 c -1.693333,-0.47625 -2.645833,-2.24896 -2.169583,-3.94229 L 107.85173,12.04892 c 0.47625,-1.69333 2.24896,-2.6458296 3.94229,-2.1695796 L 127.9336,14.56246 c 1.69334,0.47625 2.64584,2.24896 2.16959,3.94229 L 93.987559,142.91184 c -0.502708,1.69333 -2.248958,2.67229 -3.942291,2.16958 z m -30.1625,-29.68625 11.509375,-12.27667 c 1.217083,-1.29645 1.137708,-3.3602 -0.211667,-4.55083 L 47.209226,77.48038 71.180476,56.39309 c 1.349375,-1.19063 1.455208,-3.25438 0.211667,-4.55084 L 59.882768,39.56559 c -1.190625,-1.27 -3.201459,-1.34938 -4.497917,-0.13229 L 17.258393,75.15205 c -1.349375,1.24354 -1.349375,3.38666 0,4.6302 l 38.126458,35.74522 c 1.296458,1.21708 3.307292,1.16416 4.497917,-0.1323 z m 86.571672,0.15875 38.12646,-35.74521 c 1.34937,-1.24354 1.34937,-3.38666 0,-4.63021 L 146.45444,39.40684 c -1.27,-1.19063 -3.28084,-1.13771 -4.49792,0.13229 L 130.44715,51.8158 c -1.21709,1.29645 -1.13771,3.3602 0.21166,4.55083 l 23.97125,21.11375 -23.97125,21.08729 c -1.34937,1.19063 -1.45521,3.25438 -0.21166,4.55083 l 11.50937,12.27667 c 1.19063,1.29646 3.20146,1.34938 4.49792,0.15875 z"
       id="path837"
       style="stroke-width:0.264583" />
  </g>
</svg>
