<?xml version="1.0" encoding="UTF-8"?>
<svg width="100" height="100" version="1.1" viewBox="0 0 26 26" xmlns="http://www.w3.org/2000/svg">
 <path d="m13 0.7c-7 0-13 6-13 13 0 7 6 13 13 13s13-6 13-13c0-7-6-13-13-13zm-5 10-1 1c-0.8 0.7-2-0.4-1-1l1-1-1-1c-0.8-0.8 0.4-2 1-1l1 1 1-1c0.8-0.8 2 0.4 1 1l-1 1 1 1c0.8 0.8-0.4 2-1 1zm5 10c-2 0-3-1-3-3 0-2 1-3 3-3 2 0 3 1 3 3 0 2-1 3-3 3zm7-10c0.8 0.8-0.4 2-1 1l-1-1-1 1c-0.8 0.7-2-0.4-1-1l1-1-1-1c-0.8-0.8 0.4-2 1-1l1 1 1-1c0.8-0.8 2 0.4 1 1l-1 1z" stroke-width=".05"/>
</svg>
