<?xml version="1.0" encoding="UTF-8" standalone="no"?>
<svg
   xmlns:dc="http://purl.org/dc/elements/1.1/"
   xmlns:cc="http://creativecommons.org/ns#"
   xmlns:rdf="http://www.w3.org/1999/02/22-rdf-syntax-ns#"
   xmlns:svg="http://www.w3.org/2000/svg"
   xmlns="http://www.w3.org/2000/svg"
   xmlns:sodipodi="http://sodipodi.sourceforge.net/DTD/sodipodi-0.dtd"
   xmlns:inkscape="http://www.inkscape.org/namespaces/inkscape"
   viewBox="0 0 512 512"
   version="1.1"
   id="svg36"
   sodipodi:docname="briefcase.svg"
   inkscape:version="1.0.2-2 (e86c870879, 2021-01-15)">
  <metadata
     id="metadata42">
    <rdf:RDF>
      <cc:Work
         rdf:about="">
        <dc:format>image/svg+xml</dc:format>
        <dc:type
           rdf:resource="http://purl.org/dc/dcmitype/StillImage" />
      </cc:Work>
    </rdf:RDF>
  </metadata>
  <defs
     id="defs40" />
  <sodipodi:namedview
     pagecolor="#ffffff"
     bordercolor="#666666"
     borderopacity="1"
     objecttolerance="10"
     gridtolerance="10"
     guidetolerance="10"
     inkscape:pageopacity="0"
     inkscape:pageshadow="2"
     inkscape:window-width="1920"
     inkscape:window-height="1001"
     id="namedview38"
     showgrid="false"
     inkscape:zoom="1.6210938"
     inkscape:cx="256"
     inkscape:cy="256"
     inkscape:window-x="-9"
     inkscape:window-y="-9"
     inkscape:window-maximized="1"
     inkscape:current-layer="svg36" />
  <!-- Font Awesome Free 5.15.3 by @fontawesome - https://fontawesome.com License - https://fontawesome.com/license/free (Icons: CC BY 4.0, Fonts: SIL OFL 1.1, Code: MIT License) -->
  <path
     d="m 311.20964,321.01894 c 0,7.86623 -6.3146,14.23752 -14.11084,14.23752 h -84.66506 c -7.79625,0 -14.11085,-6.37129 -14.11085,-14.23752 V 278.30637 H 28.992771 v 128.1377 c 0,22.78003 19.755181,42.71256 42.332528,42.71256 H 438.20723 c 22.57735,0 42.33253,-19.93253 42.33253,-42.71256 V 278.30637 H 311.20964 Z M 438.20723,135.93116 H 367.65301 V 93.218587 c 0,-22.78003 -19.75518,-42.712562 -42.33253,-42.712562 H 184.21205 c -22.57735,0 -42.33253,19.932532 -42.33253,42.712562 V 135.93116 H 71.325299 c -22.577347,0 -42.332528,19.93253 -42.332528,42.71256 v 71.18761 H 480.53976 v -71.18761 c 0,-22.78003 -19.75518,-42.71256 -42.33253,-42.71256 z m -126.99759,0 H 198.32289 v -28.47505 h 112.88675 z"
     id="path34"
     style="stroke-width:0.885878" />
</svg>
