<?xml version="1.0" encoding="UTF-8" standalone="no"?>
<svg
   xmlns:dc="http://purl.org/dc/elements/1.1/"
   xmlns:cc="http://creativecommons.org/ns#"
   xmlns:rdf="http://www.w3.org/1999/02/22-rdf-syntax-ns#"
   xmlns:svg="http://www.w3.org/2000/svg"
   xmlns="http://www.w3.org/2000/svg"
   xmlns:sodipodi="http://sodipodi.sourceforge.net/DTD/sodipodi-0.dtd"
   xmlns:inkscape="http://www.inkscape.org/namespaces/inkscape"
   width="100mm"
   height="100mm"
   viewBox="0 0 100 100"
   version="1.1"
   id="svg8"
   sodipodi:docname="phone.svg"
   inkscape:version="1.0.2-2 (e86c870879, 2021-01-15)">
  <metadata
     id="metadata30">
    <rdf:RDF>
      <cc:Work
         rdf:about="">
        <dc:format>image/svg+xml</dc:format>
        <dc:type
           rdf:resource="http://purl.org/dc/dcmitype/StillImage" />
        <dc:title></dc:title>
      </cc:Work>
    </rdf:RDF>
  </metadata>
  <defs
     id="defs28" />
  <sodipodi:namedview
     pagecolor="#ffffff"
     bordercolor="#666666"
     borderopacity="1"
     objecttolerance="10"
     gridtolerance="10"
     guidetolerance="10"
     inkscape:pageopacity="0"
     inkscape:pageshadow="2"
     inkscape:window-width="1920"
     inkscape:window-height="1051"
     id="namedview26"
     showgrid="true"
     inkscape:zoom="2.2516042"
     inkscape:cx="276.56189"
     inkscape:cy="188.25427"
     inkscape:window-x="-9"
     inkscape:window-y="-9"
     inkscape:window-maximized="1"
     inkscape:current-layer="svg8">
    <inkscape:grid
       type="xygrid"
       id="grid32"
       spacingx="5.2916666"
       spacingy="5.2916666" />
  </sodipodi:namedview>
  <path
     d="m 74.384964,60.356047 -11.402845,-4.80526 a 2.4434667,2.4026295 0 0 0 -2.850711,0.690757 l -5.049831,6.06664 A 37.737307,37.106611 0 0 1 37.041666,44.56977 l 6.169753,-4.965434 a 2.437358,2.3966229 0 0 0 0.702498,-2.803068 L 39.026983,25.588997 a 2.4597564,2.4186471 0 0 0 -2.799806,-1.391523 l -10.588355,2.402629 a 2.4434667,2.4026295 0 0 0 -1.893687,2.341563 c 0,25.678102 21.16653,46.450839 47.240355,46.450839 a 2.4434667,2.4026295 0 0 0 2.38238,-1.862037 l 2.443467,-10.411397 a 2.4729919,2.4316613 0 0 0 -1.426373,-2.763024 z"
     id="path8"
     style="stroke-width:0.100956" />
</svg>
