
<svg
   xmlns="http://www.w3.org/2000/svg"
   width="100mm"
   height="100mm"
   viewBox="0 0 100 100"
   version="1.1"
   id="svg8">

    <path
       d="m 50.270833,4.8139259 c -25.111509,0 -45.4573293,20.4404941 -45.4573293,45.6688531 0,25.228359 20.3458203,45.668853 45.4573293,45.668853 25.111507,0 45.457329,-20.440494 45.457329,-45.668853 0,-25.228359 -20.345822,-45.6688531 -45.457329,-45.6688531 z m 0,82.4985731 c -20.217514,0 -36.659137,-16.518129 -36.659137,-36.82972 0,-20.311591 16.441623,-36.82972 36.659137,-36.82972 20.217513,0 36.659136,16.518129 36.659136,36.82972 0,20.311591 -16.441623,36.82972 -36.659136,36.82972 z M 35.607178,47.536401 c 3.244333,0 5.865462,-2.633324 5.865462,-5.892755 0,-3.25943 -2.621129,-5.892755 -5.865462,-5.892755 -3.244334,0 -5.865462,2.633325 -5.865462,5.892755 0,3.259431 2.621128,5.892755 5.865462,5.892755 z m 29.327309,0 c 3.244333,0 5.865462,-2.633324 5.865462,-5.892755 0,-3.25943 -2.621129,-5.892755 -5.865462,-5.892755 -3.244334,0 -5.865462,2.633325 -5.865462,5.892755 0,3.259431 2.621128,5.892755 5.865462,5.892755 z M 65.66767,60.90559 c -3.812551,4.603715 -9.439728,7.255455 -15.396837,7.255455 -5.95711,0 -11.584288,-2.633325 -15.396838,-7.255455 -1.558013,-1.878316 -4.344108,-2.117709 -6.195394,-0.570861 -1.869616,1.565263 -2.1079,4.345907 -0.568217,6.224223 5.498871,6.629349 13.582211,10.422811 22.160449,10.422811 8.578237,0 16.661577,-3.793462 22.160447,-10.422811 1.558014,-1.878316 1.301399,-4.65896 -0.568217,-6.224223 -1.851286,-1.546848 -4.63738,-1.307455 -6.195393,0.570861 z"
       id="path8"
       style="stroke-width:0.183721" />
</svg>
