<svg version="1.1"  xmlns="http://www.w3.org/2000/svg">

  <symbol id="inbox" viewBox="0 0 26 26">
    <path
            d="M 24.2461,12.129821 20.026497,4.2565587 A 1.9165243,2.3839692 0 0 0 18.431928,3.1950637 H 7.7071699 a 1.9164045,2.3838202 0 0 0 -1.594529,1.061495 l -4.219643,7.8732623 a 1.9161649,2.3835222 0 0 0 -0.321876,1.322275 v 6.42971 c 0,1.316564 0.85799,2.38382 1.916405,2.38382 H 22.651572 c 1.058414,0 1.916404,-1.067256 1.916404,-2.38382 v -6.42971 A 1.9161649,2.3835222 0 0 0 24.2461,12.129821 Z M 8.0490479,6.3734907 H 18.09009 l 3.406928,6.3568543 h -4.914061 l -1.277603,3.178427 h -4.47161 L 9.5561409,12.730345 h -4.914061 z"
            id="path12"
            style="stroke-width:0.0445286" />
  </symbol>


</svg>