<?xml version="1.0" standalone="no"?>
<!DOCTYPE svg PUBLIC "-//W3C//DTD SVG 20010904//EN"
 "http://www.w3.org/TR/2001/REC-SVG-20010904/DTD/svg10.dtd">
<svg version="1.0" xmlns="http://www.w3.org/2000/svg"
 width="700.000000pt" height="700.000000pt" viewBox="0 0 700.000000 700.000000"
 preserveAspectRatio="xMidYMid meet">
<metadata>
Created by potrace 1.14, written by Peter Selinger 2001-2017
</metadata>
<g transform="translate(0.000000,700.000000) scale(0.100000,-0.100000)"
fill="#000000" stroke="none">
<path d="M3417 6889 c-297 -33 -556 -261 -634 -559 -24 -90 -23 -282 1 -370
88 -322 358 -541 686 -557 268 -13 510 111 655 335 169 262 162 593 -19 845
-157 220 -418 336 -689 306z"/>
<path d="M2130 5173 c-71 -27 -105 -87 -115 -203 -9 -106 -27 -177 -66 -259
-109 -234 -327 -381 -569 -381 -189 0 -378 92 -493 239 -62 78 -133 115 -210
109 -44 -4 -85 -22 -262 -122 -240 -134 -286 -173 -303 -253 -8 -37 -8 -62 1
-96 7 -25 318 -680 692 -1456 l680 -1411 2020 3 2019 2 688 1425 c664 1376
687 1427 688 1483 0 65 -22 117 -67 158 -15 15 -122 79 -238 144 -177 100
-218 119 -262 123 -74 6 -144 -29 -208 -106 -171 -202 -409 -284 -649 -222
-116 29 -190 73 -281 165 -124 124 -183 257 -203 462 -11 107 -34 153 -93 183
-36 19 -60 20 -344 20 -244 0 -311 -3 -333 -14 -49 -26 -79 -69 -102 -146 -60
-205 -196 -358 -382 -430 -358 -139 -734 51 -848 428 -12 40 -34 87 -47 103
-50 58 -54 59 -390 58 -169 0 -315 -3 -323 -6z"/>
<path d="M1098 894 c-63 -19 -123 -87 -137 -155 -14 -66 -14 -454 0 -520 14
-65 83 -141 144 -158 58 -16 4743 -16 4796 0 50 15 105 62 129 110 18 35 20
59 20 309 0 250 -2 274 -20 309 -26 51 -82 97 -136 110 -30 8 -731 11 -2396
10 -2017 0 -2360 -2 -2400 -15z"/>
</g>
</svg>
